<mxfile host="Electron" modified="2024-06-17T14:12:12.047Z" agent="Mozilla/5.0 (Macintosh; Intel Mac OS X 10_15_7) AppleWebKit/537.36 (KHTML, like Gecko) draw.io/24.5.3 Chrome/124.0.6367.207 Electron/30.0.6 Safari/537.36" etag="-a6erKGHL_huhnIbZnMz" version="24.5.3" type="device">
  <diagram name="Page-1" id="iwE_EQxZDrAayn7RoPa9">
    <mxGraphModel dx="1735" dy="1144" grid="1" gridSize="10" guides="1" tooltips="1" connect="1" arrows="1" fold="1" page="1" pageScale="1" pageWidth="1169" pageHeight="827" background="#ffffff" math="0" shadow="0">
      <root>
        <mxCell id="0" />
        <mxCell id="1" parent="0" />
        <mxCell id="sV3X2-1Oltbh7r-kUAhQ-10" style="edgeStyle=orthogonalEdgeStyle;rounded=0;orthogonalLoop=1;jettySize=auto;html=1;strokeColor=#000000;strokeWidth=3;" parent="1" source="sV3X2-1Oltbh7r-kUAhQ-1" target="sV3X2-1Oltbh7r-kUAhQ-9" edge="1">
          <mxGeometry relative="1" as="geometry" />
        </mxCell>
        <mxCell id="sV3X2-1Oltbh7r-kUAhQ-1" value="&lt;div style=&quot;font-size: 16px;&quot;&gt;&lt;b style=&quot;&quot;&gt;&lt;font style=&quot;font-size: 16px;&quot;&gt;&lt;br&gt;&lt;/font&gt;&lt;/b&gt;&lt;/div&gt;&lt;div style=&quot;font-size: 16px;&quot;&gt;&lt;b&gt;&lt;font style=&quot;font-size: 16px;&quot;&gt;&lt;br&gt;&lt;/font&gt;&lt;/b&gt;&lt;/div&gt;&lt;div style=&quot;font-size: 16px;&quot;&gt;&lt;b&gt;&lt;font style=&quot;font-size: 16px;&quot;&gt;&lt;br&gt;&lt;/font&gt;&lt;/b&gt;&lt;/div&gt;&lt;div style=&quot;font-size: 16px;&quot;&gt;&lt;b&gt;&lt;font style=&quot;font-size: 16px;&quot;&gt;&lt;br&gt;&lt;/font&gt;&lt;/b&gt;&lt;/div&gt;&lt;div style=&quot;font-size: 16px;&quot;&gt;&lt;b&gt;&lt;font style=&quot;font-size: 16px;&quot;&gt;&lt;br&gt;&lt;/font&gt;&lt;/b&gt;&lt;/div&gt;&lt;div style=&quot;font-size: 16px;&quot;&gt;&lt;b&gt;&lt;font style=&quot;font-size: 16px;&quot;&gt;&lt;br&gt;&lt;/font&gt;&lt;/b&gt;&lt;/div&gt;&lt;div style=&quot;font-size: 16px;&quot;&gt;&lt;b&gt;&lt;font style=&quot;font-size: 16px;&quot;&gt;&lt;br&gt;&lt;/font&gt;&lt;/b&gt;&lt;/div&gt;&lt;div style=&quot;font-size: 16px;&quot;&gt;&lt;br&gt;&lt;/div&gt;&lt;div style=&quot;font-size: 16px;&quot;&gt;&lt;b style=&quot;&quot;&gt;&lt;font style=&quot;font-size: 16px;&quot;&gt;BUILD &amp;amp; PACKAGE&lt;/font&gt;&lt;/b&gt;&lt;/div&gt;" style="rounded=0;whiteSpace=wrap;html=1;strokeColor=#4D1219;fillColor=#FF0000;" parent="1" vertex="1">
          <mxGeometry x="205" y="35" width="510" height="190" as="geometry" />
        </mxCell>
        <mxCell id="sV3X2-1Oltbh7r-kUAhQ-3" style="edgeStyle=orthogonalEdgeStyle;rounded=0;orthogonalLoop=1;jettySize=auto;html=1;strokeColor=#000000;strokeWidth=3;" parent="1" source="sV3X2-1Oltbh7r-kUAhQ-2" target="sV3X2-1Oltbh7r-kUAhQ-1" edge="1">
          <mxGeometry relative="1" as="geometry" />
        </mxCell>
        <mxCell id="sV3X2-1Oltbh7r-kUAhQ-2" value="&lt;b&gt;&lt;font style=&quot;font-size: 16px;&quot;&gt;Github&lt;/font&gt;&lt;/b&gt;" style="shape=cylinder3;whiteSpace=wrap;html=1;boundedLbl=1;backgroundOutline=1;size=15;fillColor=#647687;fontColor=#ffffff;strokeColor=#314354;strokeWidth=3;" parent="1" vertex="1">
          <mxGeometry x="65" y="75" width="90" height="110" as="geometry" />
        </mxCell>
        <mxCell id="sV3X2-1Oltbh7r-kUAhQ-5" value="&lt;b&gt;&lt;font style=&quot;font-size: 16px;&quot;&gt;Maven&lt;/font&gt;&lt;/b&gt;&lt;div&gt;&lt;b&gt;&lt;font style=&quot;font-size: 16px;&quot;&gt;(For Java)&lt;/font&gt;&lt;/b&gt;&lt;/div&gt;" style="shape=cube;whiteSpace=wrap;html=1;boundedLbl=1;backgroundOutline=1;darkOpacity=0.05;darkOpacity2=0.1;fillColor=#e6d0de;gradientColor=#d5739d;strokeColor=#996185;strokeWidth=3;" parent="1" vertex="1">
          <mxGeometry x="232" y="90" width="140" height="80" as="geometry" />
        </mxCell>
        <mxCell id="sV3X2-1Oltbh7r-kUAhQ-6" value="&lt;b style=&quot;font-size: 16px;&quot;&gt;&lt;font style=&quot;font-size: 16px;&quot;&gt;Pybuild&lt;/font&gt;&lt;/b&gt;&lt;div style=&quot;font-size: 16px;&quot;&gt;&lt;b style=&quot;&quot;&gt;&lt;font style=&quot;font-size: 16px;&quot;&gt;(For Python)&lt;/font&gt;&lt;/b&gt;&lt;/div&gt;" style="shape=cube;whiteSpace=wrap;html=1;boundedLbl=1;backgroundOutline=1;darkOpacity=0.05;darkOpacity2=0.1;fillColor=#e6d0de;gradientColor=#d5739d;strokeColor=#996185;strokeWidth=3;" parent="1" vertex="1">
          <mxGeometry x="392" y="90" width="140" height="80" as="geometry" />
        </mxCell>
        <mxCell id="sV3X2-1Oltbh7r-kUAhQ-7" value="&lt;b style=&quot;font-size: 16px;&quot;&gt;&lt;font style=&quot;font-size: 16px;&quot;&gt;MSBuild&lt;/font&gt;&lt;/b&gt;&lt;div style=&quot;font-size: 16px;&quot;&gt;&lt;b style=&quot;&quot;&gt;&lt;font style=&quot;font-size: 16px;&quot;&gt;(For .NET)&lt;/font&gt;&lt;/b&gt;&lt;/div&gt;" style="shape=cube;whiteSpace=wrap;html=1;boundedLbl=1;backgroundOutline=1;darkOpacity=0.05;darkOpacity2=0.1;fillColor=#e6d0de;strokeColor=#996185;gradientColor=#d5739d;strokeWidth=3;" parent="1" vertex="1">
          <mxGeometry x="552" y="90" width="140" height="80" as="geometry" />
        </mxCell>
        <mxCell id="sV3X2-1Oltbh7r-kUAhQ-21" style="edgeStyle=orthogonalEdgeStyle;rounded=0;orthogonalLoop=1;jettySize=auto;html=1;exitX=0;exitY=0.75;exitDx=0;exitDy=0;entryX=1;entryY=0.5;entryDx=0;entryDy=0;strokeColor=#000000;strokeWidth=3;" parent="1" source="sV3X2-1Oltbh7r-kUAhQ-9" target="sV3X2-1Oltbh7r-kUAhQ-18" edge="1">
          <mxGeometry relative="1" as="geometry">
            <Array as="points">
              <mxPoint x="834" y="165" />
              <mxPoint x="745" y="165" />
              <mxPoint x="745" y="342" />
              <mxPoint x="663" y="342" />
            </Array>
          </mxGeometry>
        </mxCell>
        <mxCell id="rQE3DfOSa3EjgSTxV3hI-16" style="edgeStyle=orthogonalEdgeStyle;rounded=0;orthogonalLoop=1;jettySize=auto;html=1;exitX=0.375;exitY=1;exitDx=0;exitDy=0;strokeColor=#000000;strokeWidth=3;" edge="1" parent="1" source="sV3X2-1Oltbh7r-kUAhQ-9">
          <mxGeometry relative="1" as="geometry">
            <mxPoint x="270" y="480" as="targetPoint" />
            <Array as="points">
              <mxPoint x="860" y="205" />
              <mxPoint x="860" y="400" />
              <mxPoint x="450" y="400" />
              <mxPoint x="450" y="480" />
            </Array>
          </mxGeometry>
        </mxCell>
        <mxCell id="sV3X2-1Oltbh7r-kUAhQ-9" value="&lt;font style=&quot;font-size: 24px;&quot;&gt;&lt;b style=&quot;&quot;&gt;JENKINS&lt;/b&gt;&lt;/font&gt;&lt;div style=&quot;font-size: 24px;&quot;&gt;&lt;font style=&quot;font-size: 24px;&quot;&gt;&lt;b style=&quot;&quot;&gt;CI CD&lt;/b&gt;&lt;/font&gt;&lt;/div&gt;" style="shape=hexagon;perimeter=hexagonPerimeter2;whiteSpace=wrap;html=1;fixedSize=1;fillColor=#FF0000;strokeWidth=3;strokeColor=#000000;" parent="1" vertex="1">
          <mxGeometry x="825" y="10" width="290" height="195" as="geometry" />
        </mxCell>
        <mxCell id="sV3X2-1Oltbh7r-kUAhQ-15" value="" style="sketch=0;outlineConnect=0;fontColor=#232F3E;gradientColor=none;fillColor=#C925D1;strokeColor=none;dashed=0;verticalLabelPosition=bottom;verticalAlign=top;align=center;html=1;fontSize=12;fontStyle=0;aspect=fixed;pointerEvents=1;shape=mxgraph.aws4.rds_postgresql_instance;" parent="1" vertex="1">
          <mxGeometry x="250" y="278.5" width="104" height="104" as="geometry" />
        </mxCell>
        <mxCell id="sV3X2-1Oltbh7r-kUAhQ-17" style="edgeStyle=orthogonalEdgeStyle;rounded=0;orthogonalLoop=1;jettySize=auto;html=1;strokeColor=#000000;strokeWidth=3;" parent="1" source="sV3X2-1Oltbh7r-kUAhQ-16" target="sV3X2-1Oltbh7r-kUAhQ-15" edge="1">
          <mxGeometry relative="1" as="geometry" />
        </mxCell>
        <mxCell id="sV3X2-1Oltbh7r-kUAhQ-16" value="Amazon RDS" style="sketch=0;outlineConnect=0;fontColor=#232F3E;gradientColor=none;strokeColor=#ffffff;fillColor=#232F3E;dashed=0;verticalLabelPosition=middle;verticalAlign=bottom;align=center;html=1;whiteSpace=wrap;fontSize=10;fontStyle=1;spacing=3;shape=mxgraph.aws4.productIcon;prIcon=mxgraph.aws4.rds;" parent="1" vertex="1">
          <mxGeometry x="55" y="260.75" width="125" height="139.5" as="geometry" />
        </mxCell>
        <mxCell id="rQE3DfOSa3EjgSTxV3hI-18" style="edgeStyle=orthogonalEdgeStyle;rounded=0;orthogonalLoop=1;jettySize=auto;html=1;exitX=0;exitY=0.75;exitDx=0;exitDy=0;strokeColor=#000000;strokeWidth=3;" edge="1" parent="1" source="sV3X2-1Oltbh7r-kUAhQ-18">
          <mxGeometry relative="1" as="geometry">
            <mxPoint x="270" y="470" as="targetPoint" />
            <Array as="points">
              <mxPoint x="380" y="352" />
              <mxPoint x="380" y="470" />
            </Array>
          </mxGeometry>
        </mxCell>
        <mxCell id="sV3X2-1Oltbh7r-kUAhQ-18" value="&lt;b style=&quot;font-size: 16px;&quot;&gt;&lt;font color=&quot;#660000&quot; style=&quot;font-size: 16px;&quot;&gt;SONARQUBE&lt;/font&gt;&lt;/b&gt;&lt;div style=&quot;font-size: 16px;&quot;&gt;&lt;b style=&quot;&quot;&gt;&lt;font color=&quot;#660000&quot; style=&quot;font-size: 16px;&quot;&gt;CODE TESTING&lt;/font&gt;&lt;/b&gt;&lt;/div&gt;" style="shape=process;whiteSpace=wrap;html=1;backgroundOutline=1;fillColor=#33FF99;strokeWidth=3;strokeColor=#000000;" parent="1" vertex="1">
          <mxGeometry x="447.35" y="262.5" width="183" height="120" as="geometry" />
        </mxCell>
        <mxCell id="umu9OU_yaIA566Byw9MF-3" value="&lt;div style=&quot;font-size: 18px;&quot;&gt;&lt;b style=&quot;&quot;&gt;&lt;font style=&quot;font-size: 18px;&quot;&gt;&lt;br&gt;&lt;/font&gt;&lt;/b&gt;&lt;/div&gt;&lt;div style=&quot;font-size: 18px;&quot;&gt;&lt;b&gt;&lt;font style=&quot;font-size: 18px;&quot;&gt;&lt;br&gt;&lt;/font&gt;&lt;/b&gt;&lt;/div&gt;&lt;div style=&quot;font-size: 18px;&quot;&gt;&lt;b&gt;&lt;font style=&quot;font-size: 18px;&quot;&gt;&lt;br&gt;&lt;/font&gt;&lt;/b&gt;&lt;/div&gt;&lt;div style=&quot;font-size: 18px;&quot;&gt;&lt;b&gt;&lt;font style=&quot;font-size: 18px;&quot;&gt;&lt;br&gt;&lt;/font&gt;&lt;/b&gt;&lt;/div&gt;&lt;div style=&quot;font-size: 18px;&quot;&gt;&lt;b&gt;&lt;font style=&quot;font-size: 18px;&quot;&gt;&lt;br&gt;&lt;/font&gt;&lt;/b&gt;&lt;/div&gt;&lt;div style=&quot;font-size: 18px;&quot;&gt;&lt;b&gt;&lt;font style=&quot;font-size: 18px;&quot;&gt;&lt;br&gt;&lt;/font&gt;&lt;/b&gt;&lt;/div&gt;&lt;div style=&quot;font-size: 18px;&quot;&gt;&lt;b&gt;&lt;font style=&quot;font-size: 18px;&quot;&gt;&lt;br&gt;&lt;/font&gt;&lt;/b&gt;&lt;/div&gt;&lt;div style=&quot;font-size: 18px;&quot;&gt;&lt;b style=&quot;background-color: initial;&quot;&gt;&lt;br&gt;&lt;/b&gt;&lt;/div&gt;&lt;div style=&quot;font-size: 18px;&quot;&gt;&lt;b style=&quot;background-color: initial;&quot;&gt;Prometheus&lt;/b&gt;&lt;br&gt;&lt;/div&gt;" style="rounded=0;whiteSpace=wrap;html=1;fillColor=#7F00FF;" parent="1" vertex="1">
          <mxGeometry x="55" y="440" width="215" height="210" as="geometry" />
        </mxCell>
        <mxCell id="umu9OU_yaIA566Byw9MF-1" value="" style="sketch=0;aspect=fixed;pointerEvents=1;shadow=0;dashed=0;html=1;strokeColor=none;labelPosition=center;verticalLabelPosition=bottom;verticalAlign=top;align=center;fillColor=#00188D;shape=mxgraph.mscae.enterprise.performance_monitor" parent="1" vertex="1">
          <mxGeometry x="61.52999999999997" y="456.25" width="203.82" height="146.75" as="geometry" />
        </mxCell>
        <mxCell id="umu9OU_yaIA566Byw9MF-5" value="&lt;font style=&quot;font-size: 16px;&quot;&gt;&lt;b&gt;Ansible Config&lt;/b&gt;&lt;/font&gt;" style="rounded=1;whiteSpace=wrap;html=1;" parent="1" vertex="1">
          <mxGeometry x="885" y="145" width="170" height="40" as="geometry" />
        </mxCell>
        <mxCell id="umu9OU_yaIA566Byw9MF-8" value="" style="endArrow=classic;startArrow=classic;html=1;rounded=0;entryX=0.544;entryY=1.009;entryDx=0;entryDy=0;entryPerimeter=0;strokeColor=#000000;exitX=0.672;exitY=-0.005;exitDx=0;exitDy=0;exitPerimeter=0;strokeWidth=3;" parent="1" target="sV3X2-1Oltbh7r-kUAhQ-9" edge="1" source="rQE3DfOSa3EjgSTxV3hI-2">
          <mxGeometry width="50" height="50" relative="1" as="geometry">
            <mxPoint x="1031" y="290" as="sourcePoint" />
            <mxPoint x="1070" y="220" as="targetPoint" />
          </mxGeometry>
        </mxCell>
        <mxCell id="rQE3DfOSa3EjgSTxV3hI-1" style="edgeStyle=orthogonalEdgeStyle;rounded=0;orthogonalLoop=1;jettySize=auto;html=1;entryX=0.005;entryY=0.558;entryDx=0;entryDy=0;entryPerimeter=0;strokeColor=#000000;strokeWidth=3;" edge="1" parent="1" source="sV3X2-1Oltbh7r-kUAhQ-15" target="sV3X2-1Oltbh7r-kUAhQ-18">
          <mxGeometry relative="1" as="geometry" />
        </mxCell>
        <mxCell id="rQE3DfOSa3EjgSTxV3hI-2" value="&lt;font style=&quot;font-size: 16px;&quot;&gt;KOPS (Ansible Slave)&lt;/font&gt;" style="swimlane;whiteSpace=wrap;html=1;strokeWidth=3;strokeColor=#6F0000;fillColor=#a20025;fontColor=#ffffff;" vertex="1" parent="1">
          <mxGeometry x="660" y="420" width="480" height="370" as="geometry" />
        </mxCell>
        <mxCell id="rQE3DfOSa3EjgSTxV3hI-21" value="" style="rounded=0;whiteSpace=wrap;html=1;fillColor=#a20025;fontColor=#ffffff;strokeColor=#6F0000;" vertex="1" parent="rQE3DfOSa3EjgSTxV3hI-2">
          <mxGeometry y="22" width="480" height="348" as="geometry" />
        </mxCell>
        <mxCell id="rQE3DfOSa3EjgSTxV3hI-3" value="&lt;b&gt;&lt;font style=&quot;font-size: 16px;&quot;&gt;CONTROL PLANE &amp;amp; NODE EXPORTER&lt;/font&gt;&lt;/b&gt;" style="rounded=0;whiteSpace=wrap;html=1;fillColor=#647687;fontColor=#ffffff;strokeColor=#314354;" vertex="1" parent="rQE3DfOSa3EjgSTxV3hI-2">
          <mxGeometry x="30" y="50" width="430" height="60" as="geometry" />
        </mxCell>
        <mxCell id="rQE3DfOSa3EjgSTxV3hI-4" value="&lt;font style=&quot;font-size: 16px;&quot;&gt;&lt;b&gt;NODE 1&lt;/b&gt;&lt;/font&gt;&lt;div style=&quot;font-size: 16px;&quot;&gt;&lt;font style=&quot;font-size: 16px;&quot;&gt;&lt;b&gt;NODE EX&lt;/b&gt;&lt;/font&gt;&lt;/div&gt;&lt;div style=&quot;font-size: 16px;&quot;&gt;&lt;font style=&quot;font-size: 16px;&quot;&gt;&lt;b&gt;&lt;br&gt;&lt;/b&gt;&lt;/font&gt;&lt;/div&gt;&lt;div style=&quot;font-size: 16px;&quot;&gt;&lt;font style=&quot;font-size: 16px;&quot;&gt;&lt;b&gt;&lt;br&gt;&lt;/b&gt;&lt;/font&gt;&lt;/div&gt;&lt;div style=&quot;font-size: 16px;&quot;&gt;&lt;font style=&quot;font-size: 16px;&quot;&gt;&lt;b&gt;&lt;br&gt;&lt;/b&gt;&lt;/font&gt;&lt;/div&gt;" style="rounded=0;whiteSpace=wrap;html=1;fillColor=#e3c800;fontColor=#000000;strokeColor=#B09500;" vertex="1" parent="rQE3DfOSa3EjgSTxV3hI-2">
          <mxGeometry x="30" y="127" width="120" height="203" as="geometry" />
        </mxCell>
        <mxCell id="sV3X2-1Oltbh7r-kUAhQ-12" value="" style="image;sketch=0;aspect=fixed;html=1;points=[];align=center;fontSize=12;image=img/lib/mscae/Docker.svg;fontColor=#FFFFFF;" parent="rQE3DfOSa3EjgSTxV3hI-2" vertex="1">
          <mxGeometry x="53.41000000000008" y="237" width="73.17" height="60" as="geometry" />
        </mxCell>
        <mxCell id="rQE3DfOSa3EjgSTxV3hI-7" value="&lt;font style=&quot;font-size: 16px;&quot;&gt;&lt;b&gt;NODE 1&lt;/b&gt;&lt;/font&gt;&lt;div style=&quot;font-size: 16px;&quot;&gt;&lt;font style=&quot;font-size: 16px;&quot;&gt;&lt;b&gt;NODE EX&lt;/b&gt;&lt;/font&gt;&lt;/div&gt;&lt;div style=&quot;font-size: 16px;&quot;&gt;&lt;font style=&quot;font-size: 16px;&quot;&gt;&lt;b&gt;&lt;br&gt;&lt;/b&gt;&lt;/font&gt;&lt;/div&gt;&lt;div style=&quot;font-size: 16px;&quot;&gt;&lt;font style=&quot;font-size: 16px;&quot;&gt;&lt;b&gt;&lt;br&gt;&lt;/b&gt;&lt;/font&gt;&lt;/div&gt;&lt;div style=&quot;font-size: 16px;&quot;&gt;&lt;font style=&quot;font-size: 16px;&quot;&gt;&lt;b&gt;&lt;br&gt;&lt;/b&gt;&lt;/font&gt;&lt;/div&gt;" style="rounded=0;whiteSpace=wrap;html=1;fillColor=#e3c800;fontColor=#000000;strokeColor=#B09500;" vertex="1" parent="rQE3DfOSa3EjgSTxV3hI-2">
          <mxGeometry x="330" y="127" width="120" height="203" as="geometry" />
        </mxCell>
        <mxCell id="rQE3DfOSa3EjgSTxV3hI-8" value="" style="image;sketch=0;aspect=fixed;html=1;points=[];align=center;fontSize=12;image=img/lib/mscae/Docker.svg;fontColor=#FFFFFF;" vertex="1" parent="rQE3DfOSa3EjgSTxV3hI-2">
          <mxGeometry x="353.4100000000001" y="237" width="73.17" height="60" as="geometry" />
        </mxCell>
        <mxCell id="rQE3DfOSa3EjgSTxV3hI-5" value="&lt;font style=&quot;font-size: 16px;&quot;&gt;&lt;b&gt;NODE 1&lt;/b&gt;&lt;/font&gt;&lt;div style=&quot;font-size: 16px;&quot;&gt;&lt;font style=&quot;font-size: 16px;&quot;&gt;&lt;b&gt;NODE EX&lt;/b&gt;&lt;/font&gt;&lt;/div&gt;&lt;div style=&quot;font-size: 16px;&quot;&gt;&lt;font style=&quot;font-size: 16px;&quot;&gt;&lt;b&gt;&lt;br&gt;&lt;/b&gt;&lt;/font&gt;&lt;/div&gt;&lt;div style=&quot;font-size: 16px;&quot;&gt;&lt;font style=&quot;font-size: 16px;&quot;&gt;&lt;b&gt;&lt;br&gt;&lt;/b&gt;&lt;/font&gt;&lt;/div&gt;&lt;div style=&quot;font-size: 16px;&quot;&gt;&lt;font style=&quot;font-size: 16px;&quot;&gt;&lt;b&gt;&lt;br&gt;&lt;/b&gt;&lt;/font&gt;&lt;/div&gt;" style="rounded=0;whiteSpace=wrap;html=1;fillColor=#e3c800;fontColor=#000000;strokeColor=#B09500;" vertex="1" parent="rQE3DfOSa3EjgSTxV3hI-2">
          <mxGeometry x="180" y="127" width="120" height="203" as="geometry" />
        </mxCell>
        <mxCell id="rQE3DfOSa3EjgSTxV3hI-6" value="" style="image;sketch=0;aspect=fixed;html=1;points=[];align=center;fontSize=12;image=img/lib/mscae/Docker.svg;fontColor=#FFFFFF;" vertex="1" parent="rQE3DfOSa3EjgSTxV3hI-2">
          <mxGeometry x="203.41000000000008" y="237" width="73.17" height="60" as="geometry" />
        </mxCell>
        <mxCell id="rQE3DfOSa3EjgSTxV3hI-10" value="" style="endArrow=classic;startArrow=classic;html=1;rounded=0;entryX=0.399;entryY=0.993;entryDx=0;entryDy=0;exitX=0.5;exitY=0;exitDx=0;exitDy=0;strokeColor=#000000;entryPerimeter=0;strokeWidth=3;" edge="1" parent="rQE3DfOSa3EjgSTxV3hI-2" source="rQE3DfOSa3EjgSTxV3hI-4" target="rQE3DfOSa3EjgSTxV3hI-3">
          <mxGeometry width="50" height="50" relative="1" as="geometry">
            <mxPoint x="150" y="109.99999999999996" as="sourcePoint" />
            <mxPoint x="180" y="109.99999999999996" as="targetPoint" />
          </mxGeometry>
        </mxCell>
        <mxCell id="rQE3DfOSa3EjgSTxV3hI-11" value="" style="endArrow=classic;startArrow=classic;html=1;rounded=0;entryX=0.5;entryY=1;entryDx=0;entryDy=0;exitX=0.5;exitY=0;exitDx=0;exitDy=0;strokeColor=#000000;" edge="1" parent="rQE3DfOSa3EjgSTxV3hI-2" source="rQE3DfOSa3EjgSTxV3hI-5" target="rQE3DfOSa3EjgSTxV3hI-3">
          <mxGeometry width="50" height="50" relative="1" as="geometry">
            <mxPoint x="130" y="127" as="sourcePoint" />
            <mxPoint x="242" y="97" as="targetPoint" />
          </mxGeometry>
        </mxCell>
        <mxCell id="rQE3DfOSa3EjgSTxV3hI-12" value="" style="endArrow=classic;startArrow=classic;html=1;rounded=0;entryX=0.469;entryY=0;entryDx=0;entryDy=0;exitX=0.55;exitY=0.984;exitDx=0;exitDy=0;strokeColor=#000000;entryPerimeter=0;exitPerimeter=0;strokeWidth=3;" edge="1" parent="rQE3DfOSa3EjgSTxV3hI-2" source="rQE3DfOSa3EjgSTxV3hI-3" target="rQE3DfOSa3EjgSTxV3hI-7">
          <mxGeometry width="50" height="50" relative="1" as="geometry">
            <mxPoint x="260" y="97" as="sourcePoint" />
            <mxPoint x="372" y="67" as="targetPoint" />
          </mxGeometry>
        </mxCell>
        <mxCell id="rQE3DfOSa3EjgSTxV3hI-13" value="" style="endArrow=classic;startArrow=classic;html=1;rounded=0;entryX=0.399;entryY=0.993;entryDx=0;entryDy=0;exitX=0.49;exitY=0.003;exitDx=0;exitDy=0;strokeColor=#000000;entryPerimeter=0;exitPerimeter=0;" edge="1" parent="rQE3DfOSa3EjgSTxV3hI-2" source="rQE3DfOSa3EjgSTxV3hI-3">
          <mxGeometry width="50" height="50" relative="1" as="geometry">
            <mxPoint x="238.99" y="50" as="sourcePoint" />
            <mxPoint x="240.99" y="20" as="targetPoint" />
          </mxGeometry>
        </mxCell>
        <mxCell id="rQE3DfOSa3EjgSTxV3hI-14" value="" style="endArrow=classic;startArrow=classic;html=1;rounded=0;entryX=0;entryY=0.25;entryDx=0;entryDy=0;strokeColor=#000000;strokeWidth=3;" edge="1" parent="1" target="rQE3DfOSa3EjgSTxV3hI-4">
          <mxGeometry width="50" height="50" relative="1" as="geometry">
            <mxPoint x="270" y="598" as="sourcePoint" />
            <mxPoint x="471" y="500" as="targetPoint" />
          </mxGeometry>
        </mxCell>
        <mxCell id="rQE3DfOSa3EjgSTxV3hI-15" value="" style="endArrow=classic;startArrow=classic;html=1;rounded=0;entryX=0;entryY=0.25;entryDx=0;entryDy=0;strokeColor=#000000;exitX=0.992;exitY=0.347;exitDx=0;exitDy=0;exitPerimeter=0;strokeWidth=3;" edge="1" parent="1" source="umu9OU_yaIA566Byw9MF-3">
          <mxGeometry width="50" height="50" relative="1" as="geometry">
            <mxPoint x="282" y="510" as="sourcePoint" />
            <mxPoint x="692" y="510" as="targetPoint" />
          </mxGeometry>
        </mxCell>
        <mxCell id="rQE3DfOSa3EjgSTxV3hI-19" style="edgeStyle=orthogonalEdgeStyle;rounded=0;orthogonalLoop=1;jettySize=auto;html=1;exitX=0.25;exitY=1;exitDx=0;exitDy=0;entryX=0.999;entryY=0.715;entryDx=0;entryDy=0;entryPerimeter=0;strokeColor=#000000;strokeWidth=3;" edge="1" parent="1" source="rQE3DfOSa3EjgSTxV3hI-5" target="umu9OU_yaIA566Byw9MF-1">
          <mxGeometry relative="1" as="geometry" />
        </mxCell>
        <mxCell id="rQE3DfOSa3EjgSTxV3hI-20" style="edgeStyle=orthogonalEdgeStyle;rounded=0;orthogonalLoop=1;jettySize=auto;html=1;exitX=0.25;exitY=1;exitDx=0;exitDy=0;entryX=1.022;entryY=0.571;entryDx=0;entryDy=0;entryPerimeter=0;strokeColor=#000000;strokeWidth=3;" edge="1" parent="1" source="rQE3DfOSa3EjgSTxV3hI-7" target="umu9OU_yaIA566Byw9MF-1">
          <mxGeometry relative="1" as="geometry">
            <Array as="points">
              <mxPoint x="1020" y="800" />
              <mxPoint x="480" y="800" />
              <mxPoint x="480" y="540" />
            </Array>
          </mxGeometry>
        </mxCell>
      </root>
    </mxGraphModel>
  </diagram>
</mxfile>
